HIERARCHY
ROOT Hips
{
	OFFSET 0.000000 0.000000 0.000000
	CHANNELS 6 Xposition Yposition Zposition Zrotation Yrotation Xrotation 
	JOINT LHipJoint
	{
		OFFSET 0.000000 0.000000 0.000000
		CHANNELS 3 Zrotation Yrotation Xrotation
		JOINT LeftUpLeg
		{
			OFFSET 1.363060 -1.794630 0.839290
			CHANNELS 3 Zrotation Yrotation Xrotation
			JOINT LeftLeg
			{
				OFFSET 2.448110 -6.726130 0.000000
				CHANNELS 3 Zrotation Yrotation Xrotation
				JOINT LeftFoot
				{
					OFFSET 2.562200 -7.039590 0.000000
					CHANNELS 3 Zrotation Yrotation Xrotation
					JOINT LeftToeBase
					{
						OFFSET 0.157640 -0.433110 2.322550
						CHANNELS 3 Zrotation Yrotation Xrotation
						End Site
						{
							OFFSET 0.000000 0.000000 0.000000
						}
					}
				}
			}
		}
	}
	JOINT RHipJoint
	{
		OFFSET 0.000000 0.000000 0.000000
		CHANNELS 3 Zrotation Yrotation Xrotation
		JOINT RightUpLeg
		{
			OFFSET -1.305520 -1.794630 0.839290
			CHANNELS 3 Zrotation Yrotation Xrotation
			JOINT RightLeg
			{
				OFFSET -2.542530 -6.985550 0.000000
				CHANNELS 3 Zrotation Yrotation Xrotation
				JOINT RightFoot
				{
					OFFSET -2.568260 -7.056230 0.000000
					CHANNELS 3 Zrotation Yrotation Xrotation
					JOINT RightToeBase
					{
						OFFSET -0.164730 -0.452590 2.363150
						CHANNELS 3 Zrotation Yrotation Xrotation
						End Site
						{
							OFFSET 0.000000 0.000000 0.000000
						}
					}
				}
			}
		}
	}
	JOINT LowerBack
	{
		OFFSET 0.000000 0.000000 0.000000
		CHANNELS 3 Zrotation Yrotation Xrotation
		JOINT Spine
		{
			OFFSET 0.028270 2.035590 -0.193380
			CHANNELS 3 Zrotation Yrotation Xrotation
			JOINT Spine1
			{
				OFFSET 0.056720 2.048850 -0.042750
				CHANNELS 3 Zrotation Yrotation Xrotation
				JOINT Neck
				{
					OFFSET 0.000000 0.000000 0.000000
					CHANNELS 3 Zrotation Yrotation Xrotation
					JOINT Neck1
					{
						OFFSET -0.054170 1.746240 0.172020
						CHANNELS 3 Zrotation Yrotation Xrotation
						JOINT Head
						{
							OFFSET 0.104070 1.761360 -0.123970
							CHANNELS 3 Zrotation Yrotation Xrotation
							End Site
							{
								OFFSET 0.000000 0.000000 0.000000
							}
						}
					}
				}
				JOINT LeftShoulder
				{
					OFFSET 0.000000 0.000000 0.000000
					CHANNELS 3 Zrotation Yrotation Xrotation
					JOINT LeftArm
					{
						OFFSET 3.362410 1.200890 -0.311210
						CHANNELS 3 Zrotation Yrotation Xrotation
						JOINT LeftForeArm
						{
							OFFSET 4.983000 -0.000000 -0.000000
							CHANNELS 3 Zrotation Yrotation Xrotation
							JOINT LeftHand
							{
								OFFSET 3.483560 -0.000000 -0.000000
								CHANNELS 3 Zrotation Yrotation Xrotation
								JOINT LeftFingerBase
								{
									OFFSET 0.000000 0.000000 0.000000
									CHANNELS 3 Zrotation Yrotation Xrotation
									JOINT LeftHandIndex1
									{
										OFFSET 0.715260 -0.000000 -0.000000
										CHANNELS 3 Zrotation Yrotation Xrotation
										End Site
										{
											OFFSET 0.000000 0.000000 0.000000
										}
									}
								}
								JOINT LThumb
								{
									OFFSET 0.000000 0.000000 0.000000
									CHANNELS 3 Zrotation Yrotation Xrotation
									End Site
									{
										OFFSET 0.000000 0.000000 0.000000
									}
								}
							}
						}
					}
				}
				JOINT RightShoulder
				{
					OFFSET 0.000000 0.000000 0.000000
					CHANNELS 3 Zrotation Yrotation Xrotation
					JOINT RightArm
					{
						OFFSET -3.136600 1.374050 -0.404650
						CHANNELS 3 Zrotation Yrotation Xrotation
						JOINT RightForeArm
						{
							OFFSET -5.241900 -0.000000 -0.000000
							CHANNELS 3 Zrotation Yrotation Xrotation
							JOINT RightHand
							{
								OFFSET -3.444170 -0.000000 -0.000000
								CHANNELS 3 Zrotation Yrotation Xrotation
								JOINT RightFingerBase
								{
									OFFSET 0.000000 0.000000 0.000000
									CHANNELS 3 Zrotation Yrotation Xrotation
									JOINT RightHandIndex1
									{
										OFFSET -0.622530 -0.000000 -0.000000
										CHANNELS 3 Zrotation Yrotation Xrotation
										End Site
										{
											OFFSET 0.000000 0.000000 0.000000
										}
									}
								}
								JOINT RThumb
								{
									OFFSET 0.000000 0.000000 0.000000
									CHANNELS 3 Zrotation Yrotation Xrotation
									End Site
									{
										OFFSET 0.000000 0.000000 0.000000
									}
								}
							}
						}
					}
				}
			}
		}
	}
}
MOTION
Frames: 5
Frame Time: 0.008333
3.332397 16.693225 -0.510397 10.992152 64.788225 14.943389 -9.306985 0.759280 2.048829 -12.487292 -0.634341 -31.265183 -2.049071 0.893299 27.142642 0.611851 3.300604 -2.300861 0.417300 0.000001 -22.724300 11.919167 -3.600150 -1.232256 -3.759503 -8.832159 -1.295857 0.171345 -3.544527 44.161339 0.777572 18.068079 10.520381 5.114100 0.000001 -84.274600 -8.807978 1.539394 -3.123892 -2.270947 2.005941 -3.858034 -4.886434 1.867015 -1.006907 6.654085 -2.687359 -6.966042 -1.971414 -0.167119 0.200715 0.000000 0.000000 0.000000 -10.527019 19.320430 2.877334 -74.037201 30.977437 0.390421 -3.931747 -9.451153 -0.000243 1.888007 4.541999 0.078339 -0.044814 -0.122563 -0.000000 0.000000 0.000000 0.000000 0.000000 0.000000 0.000000 4.845510 4.638589 -1.824774 45.373618 47.694251 11.303335 0.215864 77.053435 -0.047858 -3.583659 9.133160 -0.299376 -0.070439 -0.601780 -0.000000 0.000000 0.000000 0.000000 0.000000 0.000000 0.000000 
3.461550 16.641317 -0.488693 11.896088 64.204222 15.694468 -9.207615 0.819714 1.836011 -13.380724 -0.093534 -31.771501 -2.050428 1.029336 29.271105 0.669412 3.492120 -3.427437 0.338900 -0.000000 -22.605200 12.192422 -3.516766 -1.230042 -4.944650 -9.117129 -2.894917 -0.093804 -3.710585 47.247622 0.640670 18.557797 12.206267 5.846199 0.000000 -83.610600 -9.251708 1.409842 -2.960505 -2.371689 1.914592 -3.860733 -4.943634 1.782466 -1.110299 6.858708 -2.534497 -6.934729 -2.058597 -0.173705 0.201057 0.000000 0.000000 0.000000 -10.522003 18.734556 2.925244 -73.818399 30.036477 2.072691 -3.871942 -10.633594 -0.000034 1.681244 4.164863 0.063947 -0.038467 -0.118381 -0.000000 0.000000 0.000000 0.000000 0.000000 0.000000 0.000000 5.380971 4.925455 -1.613011 47.192599 46.886476 12.733464 0.250988 76.559999 -0.045593 -3.587107 9.223574 -0.303136 -0.059025 -0.597021 -0.000000 0.000000 0.000000 0.000000 0.000000 0.000000 0.000000 
3.584009 16.588351 -0.467483 12.755241 63.624618 16.403472 -9.096867 0.874620 1.610502 -14.255134 0.397073 -32.209187 -2.057066 1.159959 31.316599 0.727803 3.654262 -4.673557 0.239400 -0.000000 -22.529000 12.456118 -3.403129 -1.237428 -6.028728 -9.278008 -4.521701 -0.354613 -3.881663 50.383431 0.492108 18.736651 13.799381 6.483200 -0.000000 -81.879500 -9.684986 1.273557 -2.746424 -2.469741 1.816949 -3.856421 -5.002441 1.691620 -1.232668 7.046082 -2.379629 -6.900446 -2.150115 -0.180538 0.200807 0.000000 0.000000 0.000000 -10.557006 18.084967 2.979350 -73.466825 29.008847 3.941355 -3.807724 -11.835426 0.000113 1.512458 3.883693 0.053555 -0.032349 -0.113639 -0.000000 0.000000 0.000000 0.000000 0.000000 0.000000 0.000000 5.917497 5.213043 -1.402496 49.024995 46.018200 14.128656 0.285934 75.926884 -0.043525 -3.626068 9.315168 -0.310098 -0.047038 -0.591585 -0.000000 0.000000 0.000000 0.000000 0.000000 0.000000 0.000000 
3.700210 16.535347 -0.447266 13.546182 63.045424 17.041422 -8.979122 0.925170 1.375014 -15.092095 0.836241 -32.544157 -2.068513 1.282347 33.228763 0.788397 3.800147 -6.000617 0.122600 0.000000 -22.491500 12.707268 -3.262205 -1.258062 -7.002146 -9.326182 -6.157097 -0.611269 -4.060130 53.542700 0.337526 18.519112 15.202306 6.930600 0.000000 -79.288000 -10.093151 1.135193 -2.479573 -2.562355 1.716253 -3.843732 -5.062881 1.597530 -1.369851 7.214488 -2.222419 -6.865314 -2.245953 -0.187567 0.199278 0.000000 0.000000 0.000000 -10.628944 17.390960 3.039417 -72.970278 27.865734 5.973995 -3.741417 -13.009942 0.000220 1.386489 3.694846 0.046563 -0.026714 -0.108177 -0.000000 0.000000 0.000000 0.000000 0.000000 0.000000 0.000000 6.454178 5.499968 -1.196716 50.859141 45.087844 15.481363 0.321331 75.137955 -0.041729 -3.707458 9.408386 -0.320969 -0.034602 -0.585330 -0.000000 0.000000 0.000000 0.000000 0.000000 0.000000 0.000000 
3.810893 16.483482 -0.428445 14.251009 62.463859 17.586627 -8.858989 0.972485 1.132805 -15.877316 1.227647 -32.752323 -2.084042 1.393990 34.966476 0.852803 3.946646 -7.366219 -0.007600 -0.000000 -22.479800 12.943550 -3.098132 -1.293666 -7.859161 -9.278201 -7.787804 -0.866331 -4.247193 56.699006 0.180135 17.831189 16.327687 7.102300 0.000000 -76.110300 -10.462796 1.000004 -2.162393 -2.647021 1.616282 -3.823211 -5.125197 1.503615 -1.521257 7.361642 -2.057606 -6.827213 -2.346023 -0.194804 0.197093 0.000000 0.000000 0.000000 -10.738586 16.652524 3.105398 -72.327578 26.601334 8.097945 -3.678337 -14.118098 0.000290 1.301690 3.588216 0.042275 -0.021911 -0.101901 0.000000 0.000000 0.000000 0.000000 0.000000 0.000000 0.000000 6.987428 5.788425 -0.997671 52.688018 44.080478 16.779565 0.358236 74.178575 -0.040222 -3.831891 9.502804 -0.335750 -0.021931 -0.578077 -0.000000 0.000000 0.000000 0.000000 0.000000 0.000000 0.000000 
